<svg width="25" height="18" viewBox="0 0 25 18" fill="none" xmlns="http://www.w3.org/2000/svg">
<g filter="url(#filter0_d_7118_24)">
<path d="M20.6742 1.97652C20.885 1.76125 21 1.48728 21 1.16438C21 0.518592 20.5017 7.21312e-07 19.8692 6.93666e-07C19.553 6.79843e-07 19.2655 0.136987 19.0451 0.362036L12.4904 7.21135L5.9549 0.362036C5.7345 0.136987 5.43743 6.2832e-08 5.13078 4.94279e-08C4.49831 2.17818e-08 4 0.518591 4 1.16438C4 1.48728 4.11499 1.76125 4.32582 1.97652L11.6088 9.58904C11.8579 9.86301 12.1646 9.99022 12.5 10C12.8354 10 13.1229 9.86301 13.3816 9.58904L20.6742 1.97652Z" fill="#1F2B2E"/>
</g>
<defs>
<filter id="filter0_d_7118_24" x="0" y="0" width="25" height="18" filterUnits="userSpaceOnUse" color-interpolation-filters="sRGB">
<feFlood flood-opacity="0" result="BackgroundImageFix"/>
<feColorMatrix in="SourceAlpha" type="matrix" values="0 0 0 0 0 0 0 0 0 0 0 0 0 0 0 0 0 0 127 0" result="hardAlpha"/>
<feOffset dy="4"/>
<feGaussianBlur stdDeviation="2"/>
<feComposite in2="hardAlpha" operator="out"/>
<feColorMatrix type="matrix" values="0 0 0 0 0 0 0 0 0 0 0 0 0 0 0 0 0 0 0.25 0"/>
<feBlend mode="normal" in2="BackgroundImageFix" result="effect1_dropShadow_7118_24"/>
<feBlend mode="normal" in="SourceGraphic" in2="effect1_dropShadow_7118_24" result="shape"/>
</filter>
</defs>
</svg>
